<svg width="63" height="63" viewBox="0 0 63 63" fill="none" xmlns="http://www.w3.org/2000/svg">
<path d="M45.9375 52.5C44.1 52.5 42.5469 51.8656 41.2781 50.5969C40.0094 49.3281 39.375 47.775 39.375 45.9375C39.375 44.1 40.0094 42.5469 41.2781 41.2781C42.5469 40.0094 44.1 39.375 45.9375 39.375C46.2875 39.375 46.6813 39.4083 47.1188 39.4748C47.5563 39.5413 48.0375 39.683 48.5625 39.9V26.25H57.75V31.5H52.5V45.9375C52.5 47.775 51.8656 49.3281 50.5969 50.5969C49.3281 51.8656 47.775 52.5 45.9375 52.5ZM28.875 31.5C25.9875 31.5 23.5156 30.4719 21.4594 28.4156C19.4031 26.3594 18.375 23.8875 18.375 21C18.375 18.1125 19.4031 15.6406 21.4594 13.5844C23.5156 11.5281 25.9875 10.5 28.875 10.5C31.7625 10.5 34.2344 11.5281 36.2906 13.5844C38.3469 15.6406 39.375 18.1125 39.375 21C39.375 23.8875 38.3469 26.3594 36.2906 28.4156C34.2344 30.4719 31.7625 31.5 28.875 31.5ZM7.875 52.5V45.15C7.875 43.6188 8.25825 42.2406 9.02475 41.0156C9.79125 39.7906 10.808 38.85 12.075 38.1938C14.7875 36.8375 17.5437 35.8207 20.3438 35.1435C23.1438 34.4662 25.9875 34.1268 28.875 34.125C30.7125 34.125 32.5395 34.2676 34.356 34.5529C36.1725 34.8381 37.9986 35.2642 39.8344 35.8312C36.9469 37.5812 35.1531 40.0864 34.4531 43.3466C33.7531 46.6069 34.3219 49.658 36.1594 52.5H7.875Z" fill="white"/>
</svg>
