<svg width="65" height="65" viewBox="0 0 65 65" fill="none" xmlns="http://www.w3.org/2000/svg">
<path d="M48.7501 40.625H43.3334V46.0417H48.7501M48.7501 29.7917H43.3334V35.2083H48.7501M54.1668 51.4583H32.5001V46.0417H37.9167V40.625H32.5001V35.2083H37.9167V29.7917H32.5001V24.375H54.1668M27.0834 18.9583H21.6667V13.5417H27.0834M27.0834 29.7917H21.6667V24.375H27.0834M27.0834 40.625H21.6667V35.2083H27.0834M27.0834 51.4583H21.6667V46.0417H27.0834M16.2501 18.9583H10.8334V13.5417H16.2501M16.2501 29.7917H10.8334V24.375H16.2501M16.2501 40.625H10.8334V35.2083H16.2501M16.2501 51.4583H10.8334V46.0417H16.2501M32.5001 18.9583V8.125H5.41675V56.875H59.5834V18.9583H32.5001Z" fill="white"/>
</svg>
