<svg width="26" height="64" viewBox="0 0 26 64" fill="none" xmlns="http://www.w3.org/2000/svg">
<path d="M19 15.8333H6.33333C2.85 15.8333 0 18.6833 0 22.1666V37.9999C0 39.7416 1.425 41.1666 3.16667 41.1666H6.33333V60.1666C6.33333 61.9083 7.75833 63.3333 9.5 63.3333H15.8333C17.575 63.3333 19 61.9083 19 60.1666V41.1666H22.1667C23.9083 41.1666 25.3333 39.7416 25.3333 37.9999V22.1666C25.3333 18.6833 22.4833 15.8333 19 15.8333Z" fill="white"/>
<path d="M12.6668 12.6667C16.1646 12.6667 19.0002 9.83114 19.0002 6.33333C19.0002 2.83553 16.1646 0 12.6668 0C9.16903 0 6.3335 2.83553 6.3335 6.33333C6.3335 9.83114 9.16903 12.6667 12.6668 12.6667Z" fill="white"/>
</svg>
