<svg width="15" height="24" viewBox="0 0 15 24" fill="none" xmlns="http://www.w3.org/2000/svg">
<path d="M9.0625 21.6C9.0625 21.1875 8.9095 20.8344 8.60352 20.5406C8.29753 20.2469 7.92969 20.1 7.5 20.1C7.07031 20.1 6.70247 20.2469 6.39648 20.5406C6.09049 20.8344 5.9375 21.1875 5.9375 21.6C5.9375 22.0125 6.09049 22.3656 6.39648 22.6594C6.70247 22.9531 7.07031 23.1 7.5 23.1C7.92969 23.1 8.29753 22.9531 8.60352 22.6594C8.9095 22.3656 9.0625 22.0125 9.0625 21.6ZM13.125 18.6V5.4C13.125 5.2375 13.0632 5.09688 12.9395 4.97813C12.8158 4.85938 12.6693 4.8 12.5 4.8H2.5C2.33073 4.8 2.18424 4.85938 2.06055 4.97813C1.93685 5.09688 1.875 5.2375 1.875 5.4V18.6C1.875 18.7625 1.93685 18.9031 2.06055 19.0219C2.18424 19.1406 2.33073 19.2 2.5 19.2H12.5C12.6693 19.2 12.8158 19.1406 12.9395 19.0219C13.0632 18.9031 13.125 18.7625 13.125 18.6ZM9.375 2.7C9.375 2.5 9.27083 2.4 9.0625 2.4H5.9375C5.72917 2.4 5.625 2.5 5.625 2.7C5.625 2.9 5.72917 3 5.9375 3H9.0625C9.27083 3 9.375 2.9 9.375 2.7ZM15 2.4V21.6C15 22.25 14.7526 22.8125 14.2578 23.2875C13.763 23.7625 13.1771 24 12.5 24H2.5C1.82292 24 1.23698 23.7625 0.742188 23.2875C0.247396 22.8125 0 22.25 0 21.6V2.4C0 1.75 0.247396 1.1875 0.742188 0.7125C1.23698 0.2375 1.82292 0 2.5 0H12.5C13.1771 0 13.763 0.2375 14.2578 0.7125C14.7526 1.1875 15 1.75 15 2.4Z" fill="black"/>
</svg>
