<svg width="25" height="25" viewBox="0 0 25 25" fill="none" xmlns="http://www.w3.org/2000/svg">
<path d="M12.4999 8.302C11.3866 8.302 10.3188 8.74428 9.53154 9.53154C8.74428 10.3188 8.302 11.3866 8.302 12.4999C8.302 13.6133 8.74428 14.681 9.53154 15.4683C10.3188 16.2556 11.3866 16.6978 12.4999 16.6978C13.6133 16.6978 14.681 16.2556 15.4683 15.4683C16.2556 14.681 16.6978 13.6133 16.6978 12.4999C16.6978 11.3866 16.2556 10.3188 15.4683 9.53154C14.681 8.74428 13.6133 8.302 12.4999 8.302Z" fill="black"/>
<path fill-rule="evenodd" clip-rule="evenodd" d="M5.74455 0.980948C10.2344 0.483564 14.7655 0.483564 19.2554 0.980948C21.7083 1.25478 23.6858 3.18582 23.9738 5.64774C24.5059 10.2004 24.5059 14.7996 23.9738 19.3523C23.6858 21.8142 21.7083 23.7453 19.2567 24.0204C14.7664 24.5179 10.2349 24.5179 5.74455 24.0204C3.29168 23.7453 1.31414 21.8142 1.0261 19.3536C0.493906 14.8005 0.493906 10.2009 1.0261 5.64774C1.31414 3.18582 3.29168 1.25478 5.74455 0.980948ZM18.9583 4.75003C18.6157 4.75003 18.2872 4.88612 18.045 5.12835C17.8027 5.37059 17.6666 5.69913 17.6666 6.0417C17.6666 6.38427 17.8027 6.71281 18.045 6.95504C18.2872 7.19728 18.6157 7.33336 18.9583 7.33336C19.3009 7.33336 19.6294 7.19728 19.8716 6.95504C20.1139 6.71281 20.25 6.38427 20.25 6.0417C20.25 5.69913 20.1139 5.37059 19.8716 5.12835C19.6294 4.88612 19.3009 4.75003 18.9583 4.75003ZM6.36455 12.5C6.36455 10.8728 7.01096 9.31225 8.16158 8.16164C9.31219 7.01102 10.8728 6.36461 12.5 6.36461C14.1272 6.36461 15.6877 7.01102 16.8384 8.16164C17.989 9.31225 18.6354 10.8728 18.6354 12.5C18.6354 14.1272 17.989 15.6878 16.8384 16.8384C15.6877 17.989 14.1272 18.6354 12.5 18.6354C10.8728 18.6354 9.31219 17.989 8.16158 16.8384C7.01096 15.6878 6.36455 14.1272 6.36455 12.5Z" fill="black"/>
</svg>
