<svg width="27" height="24" viewBox="0 0 27 24" fill="none" xmlns="http://www.w3.org/2000/svg">
<path d="M13.5 0.625C20.5083 0.625 26.1887 5.05233 26.1887 10.5152C26.1887 15.9769 20.5083 20.4042 13.5012 20.4042C12.8035 20.403 12.1066 20.3586 11.4144 20.2713L6.0881 23.7549C5.48272 24.0751 5.26885 24.0401 5.51776 23.2559L6.5956 18.8116C3.1156 17.0475 0.813721 13.9904 0.813721 10.5152C0.813721 5.05354 6.49289 0.625 13.5012 0.625M20.6401 10.3642L22.4163 8.6435C22.5188 8.53706 22.576 8.39499 22.5758 8.24722C22.5756 8.09945 22.5181 7.95752 22.4153 7.85133C22.3126 7.74513 22.1726 7.68296 22.025 7.67791C21.8773 7.67286 21.7334 7.72532 21.6236 7.82425L19.294 10.079V8.21575C19.294 8.06449 19.2339 7.91942 19.1269 7.81246C19.02 7.70551 18.8749 7.64542 18.7236 7.64542C18.5724 7.64542 18.4273 7.70551 18.3204 7.81246C18.2134 7.91942 18.1533 8.06449 18.1533 8.21575V11.3055C18.1332 11.3937 18.1332 11.4854 18.1533 11.5737V13.3125C18.1533 13.4638 18.2134 13.6088 18.3204 13.7158C18.4273 13.8227 18.5724 13.8828 18.7236 13.8828C18.8749 13.8828 19.02 13.8227 19.1269 13.7158C19.2339 13.6088 19.294 13.4638 19.294 13.3125V11.6655L19.8099 11.1665L21.5354 13.623C21.5785 13.6844 21.6333 13.7366 21.6965 13.7768C21.7598 13.817 21.8304 13.8443 21.9042 13.8572C21.978 13.8701 22.0537 13.8683 22.1268 13.852C22.2 13.8357 22.2692 13.8051 22.3305 13.762C22.3918 13.7189 22.4441 13.6642 22.4843 13.6009C22.5244 13.5376 22.5518 13.4671 22.5647 13.3932C22.5776 13.3194 22.5758 13.2438 22.5595 13.1706C22.5431 13.0975 22.5126 13.0282 22.4695 12.9669L20.6401 10.3642ZM17.0658 12.689H15.3016V8.23387C15.2949 8.08731 15.2319 7.94899 15.1258 7.84766C15.0197 7.74633 14.8786 7.68979 14.7319 7.68979C14.5852 7.68979 14.4441 7.74633 14.338 7.84766C14.2319 7.94899 14.1689 8.08731 14.1622 8.23387V13.2593C14.1622 13.5735 14.4159 13.8297 14.7313 13.8297H17.0658C17.2171 13.8297 17.3621 13.7696 17.4691 13.6626C17.576 13.5557 17.6361 13.4106 17.6361 13.2593C17.6361 13.1081 17.576 12.963 17.4691 12.856C17.3621 12.7491 17.2171 12.689 17.0658 12.689ZM9.9886 11.3707L10.8296 9.30688L11.6005 11.3695L9.9886 11.3707ZM13.0372 11.9592L13.0396 11.9398C13.0392 11.7962 12.9844 11.658 12.8862 11.5532L11.6223 8.16983C11.5693 8.0086 11.4684 7.86738 11.333 7.76503C11.1976 7.66269 11.0342 7.6041 10.8646 7.59708C10.694 7.59701 10.5273 7.64855 10.3865 7.74495C10.2456 7.84135 10.1373 7.97809 10.0756 8.13721L8.06735 13.0612C8.01014 13.2012 8.01091 13.3582 8.06949 13.4977C8.12807 13.6372 8.23965 13.7477 8.3797 13.8049C8.51975 13.8621 8.67678 13.8613 8.81626 13.8027C8.95573 13.7442 9.06623 13.6326 9.12343 13.4925L9.5246 12.5102H12.0258L12.3859 13.4768C12.4105 13.5491 12.4493 13.6157 12.5001 13.6727C12.5508 13.7296 12.6125 13.7759 12.6815 13.8086C12.7504 13.8413 12.8253 13.8598 12.9015 13.8631C12.9777 13.8663 13.0539 13.8543 13.1254 13.8276C13.1969 13.8009 13.2623 13.7601 13.3177 13.7077C13.3732 13.6553 13.4176 13.5922 13.4482 13.5223C13.4789 13.4524 13.4952 13.3771 13.4962 13.3008C13.4972 13.2245 13.4829 13.1488 13.4541 13.0781L13.0372 11.9592ZM9.02193 8.23992C9.02225 8.16503 9.00775 8.09082 8.97928 8.02156C8.95081 7.9523 8.90892 7.88935 8.85602 7.83635C8.80312 7.78334 8.74027 7.74131 8.67107 7.71269C8.60187 7.68407 8.52769 7.66942 8.4528 7.66958H4.53176C4.3805 7.66958 4.23543 7.72967 4.12848 7.83663C4.02152 7.94359 3.96143 8.08865 3.96143 8.23992C3.96143 8.39118 4.02152 8.53624 4.12848 8.6432C4.23543 8.75016 4.3805 8.81025 4.53176 8.81025H5.93343V13.3246C5.93343 13.4758 5.99352 13.6209 6.10048 13.7279C6.20743 13.8348 6.3525 13.8949 6.50376 13.8949C6.65502 13.8949 6.80009 13.8348 6.90705 13.7279C7.01401 13.6209 7.0741 13.4758 7.0741 13.3246V8.81025H8.4516C8.52658 8.81057 8.60089 8.79604 8.67023 8.76749C8.73957 8.73894 8.80257 8.69694 8.8556 8.64392C8.90862 8.59089 8.95062 8.52789 8.97917 8.45855C9.00772 8.38921 9.02225 8.3149 9.02193 8.23992Z" fill="black"/>
</svg>
